<svg xmlns="http://www.w3.org/2000/svg" xmlns:xlink="http://www.w3.org/1999/xlink" width="1080" zoomAndPan="magnify" viewBox="0 0 810 809.999993" height="1080" preserveAspectRatio="xMidYMid meet" version="1.0"><defs><filter x="0%" y="0%" width="100%" height="100%" id="cb0886fc04"><feColorMatrix values="0 0 0 0 1 0 0 0 0 1 0 0 0 0 1 0 0 0 1 0" color-interpolation-filters="sRGB"/></filter><mask id="83f9f645d1"><g filter="url(#cb0886fc04)"><rect x="-81" width="972" fill="#000000" y="-80.999999" height="971.999992" fill-opacity="0.4784"/></g></mask><clipPath id="3dabfe9f8c"><rect x="0" width="810" y="0" height="790"/></clipPath></defs><g mask="url(#83f9f645d1)"><g transform="matrix(1, 0, 0, 1, 0, 10)"><g clip-path="url(#3dabfe9f8c)"><path fill="#e6e6e4" d="M 458.703125 40.738281 C 457.707031 39.742188 456.683594 38.773438 455.636719 37.828125 C 454.589844 36.882812 453.523438 35.964844 452.429688 35.070312 C 451.339844 34.179688 450.226562 33.3125 449.09375 32.476562 C 447.960938 31.636719 446.808594 30.828125 445.632812 30.046875 C 444.460938 29.265625 443.269531 28.511719 442.058594 27.789062 C 440.847656 27.066406 439.621094 26.375 438.378906 25.710938 C 437.132812 25.046875 435.875 24.417969 434.597656 23.816406 C 433.324219 23.214844 432.035156 22.644531 430.730469 22.109375 C 429.429688 21.570312 428.113281 21.066406 426.785156 20.59375 C 425.457031 20.121094 424.117188 19.679688 422.769531 19.273438 C 421.417969 18.863281 420.058594 18.492188 418.691406 18.148438 C 417.324219 17.808594 415.949219 17.503906 414.566406 17.230469 C 413.183594 16.957031 411.792969 16.714844 410.398438 16.511719 C 409.003906 16.308594 407.605469 16.136719 406.203125 16 C 404.800781 15.863281 403.394531 15.761719 401.988281 15.695312 C 400.578125 15.625 399.171875 15.59375 397.761719 15.59375 C 396.351562 15.597656 394.941406 15.632812 393.535156 15.703125 C 392.125 15.777344 390.722656 15.882812 389.320312 16.019531 C 387.917969 16.160156 386.519531 16.335938 385.125 16.542969 C 383.730469 16.75 382.339844 16.996094 380.960938 17.269531 C 379.578125 17.546875 378.203125 17.859375 376.835938 18.203125 C 375.46875 18.546875 374.109375 18.921875 372.761719 19.335938 C 371.414062 19.746094 370.074219 20.1875 368.75 20.664062 C 367.421875 21.140625 366.109375 21.648438 364.804688 22.191406 C 363.503906 22.730469 362.21875 23.304688 360.945312 23.90625 C 359.667969 24.511719 358.410156 25.148438 357.167969 25.8125 C 355.925781 26.480469 354.703125 27.175781 353.492188 27.902344 C 352.285156 28.625 351.09375 29.382812 349.921875 30.164062 C 348.75 30.949219 347.601562 31.761719 346.46875 32.605469 C 345.335938 33.445312 344.226562 34.3125 343.136719 35.207031 C 342.050781 36.101562 340.984375 37.023438 339.941406 37.972656 C 338.894531 38.921875 337.875 39.894531 336.878906 40.890625 C 335.882812 41.886719 334.914062 42.910156 333.96875 43.953125 C 333.023438 45 332.101562 46.066406 331.210938 47.160156 C 330.316406 48.25 329.449219 49.359375 328.609375 50.492188 C 327.773438 51.628906 326.960938 52.78125 326.179688 53.953125 C 325.398438 55.125 324.644531 56.316406 323.917969 57.527344 C 323.195312 58.734375 322.503906 59.964844 321.839844 61.207031 C 321.175781 62.449219 320.542969 63.710938 319.941406 64.984375 C 319.339844 66.257812 318.769531 67.546875 318.230469 68.851562 C 317.691406 70.152344 317.183594 71.46875 316.710938 72.796875 C 316.234375 74.125 315.792969 75.464844 315.386719 76.8125 C 314.976562 78.160156 314.601562 79.519531 314.261719 80.886719 C 313.917969 82.253906 313.609375 83.632812 313.335938 85.015625 C 313.0625 86.398438 312.824219 87.785156 312.617188 89.179688 C 312.410156 90.574219 312.238281 91.972656 312.101562 93.375 C 311.964844 94.78125 311.859375 96.1875 311.792969 97.59375 C 311.722656 99 311.6875 100.410156 311.691406 101.820312 C 311.691406 103.230469 311.726562 104.640625 311.796875 106.046875 C 311.863281 107.457031 311.96875 108.859375 312.109375 110.265625 C 312.246094 111.667969 312.417969 113.066406 312.625 114.460938 C 312.832031 115.855469 313.074219 117.242188 313.351562 118.625 C 313.625 120.007812 313.933594 121.382812 314.277344 122.75 C 314.621094 124.117188 314.996094 125.476562 315.40625 126.824219 C 315.816406 128.175781 316.257812 129.511719 316.734375 130.839844 C 317.207031 132.167969 317.714844 133.484375 318.253906 134.785156 C 318.796875 136.085938 319.367188 137.375 319.96875 138.648438 C 320.574219 139.925781 321.207031 141.183594 321.871094 142.425781 C 322.535156 143.667969 323.230469 144.894531 323.957031 146.105469 C 324.679688 147.3125 325.433594 148.503906 326.21875 149.675781 C 327 150.847656 327.8125 152 328.652344 153.132812 C 329.492188 154.265625 330.359375 155.378906 331.253906 156.464844 C 332.148438 157.554688 333.066406 158.625 334.015625 159.667969 C 334.960938 160.714844 335.933594 161.734375 336.929688 162.730469 L 568.078125 393.910156 C 568.527344 394.363281 568.75 394.910156 568.746094 395.550781 C 568.757812 396.1875 568.535156 396.730469 568.078125 397.171875 L 337.121094 627.347656 C 336.125 628.34375 335.152344 629.363281 334.203125 630.40625 C 333.257812 631.449219 332.335938 632.515625 331.441406 633.601562 C 330.546875 634.691406 329.675781 635.800781 328.835938 636.929688 C 327.996094 638.0625 327.183594 639.210938 326.398438 640.382812 C 325.617188 641.554688 324.859375 642.742188 324.132812 643.949219 C 323.410156 645.15625 322.710938 646.382812 322.046875 647.625 C 321.382812 648.867188 320.746094 650.125 320.140625 651.398438 C 319.539062 652.671875 318.964844 653.957031 318.425781 655.257812 C 317.882812 656.558594 317.375 657.871094 316.898438 659.199219 C 316.421875 660.523438 315.980469 661.863281 315.566406 663.210938 C 315.15625 664.558594 314.78125 665.914062 314.433594 667.28125 C 314.089844 668.648438 313.78125 670.023438 313.503906 671.402344 C 313.226562 672.785156 312.984375 674.171875 312.777344 675.566406 C 312.566406 676.960938 312.394531 678.359375 312.253906 679.761719 C 312.113281 681.164062 312.007812 682.566406 311.9375 683.972656 C 311.863281 685.382812 311.828125 686.789062 311.824219 688.199219 C 311.824219 689.609375 311.855469 691.015625 311.921875 692.425781 C 311.992188 693.832031 312.09375 695.238281 312.226562 696.640625 C 312.363281 698.042969 312.535156 699.441406 312.738281 700.835938 C 312.945312 702.226562 313.183594 703.617188 313.457031 705 C 313.726562 706.382812 314.035156 707.757812 314.375 709.125 C 314.714844 710.492188 315.089844 711.847656 315.496094 713.199219 C 315.902344 714.546875 316.34375 715.886719 316.816406 717.214844 C 317.289062 718.539062 317.792969 719.855469 318.328125 721.160156 C 318.867188 722.460938 319.4375 723.75 320.035156 725.023438 C 320.636719 726.300781 321.269531 727.558594 321.929688 728.800781 C 322.59375 730.046875 323.285156 731.273438 324.007812 732.484375 C 324.730469 733.691406 325.480469 734.882812 326.261719 736.058594 C 327.042969 737.230469 327.851562 738.382812 328.6875 739.515625 C 329.527344 740.648438 330.390625 741.761719 331.285156 742.851562 C 332.175781 743.941406 333.09375 745.011719 334.039062 746.054688 C 334.984375 747.101562 335.953125 748.125 336.945312 749.121094 C 337.941406 750.121094 338.960938 751.09375 340 752.042969 C 341.042969 752.988281 342.109375 753.910156 343.195312 754.808594 C 344.285156 755.703125 345.394531 756.570312 346.523438 757.414062 C 347.652344 758.253906 348.804688 759.066406 349.972656 759.851562 C 351.144531 760.636719 352.332031 761.394531 353.539062 762.121094 C 354.746094 762.847656 355.972656 763.542969 357.210938 764.210938 C 358.453125 764.875 359.710938 765.511719 360.984375 766.117188 C 362.257812 766.722656 363.542969 767.292969 364.84375 767.835938 C 366.144531 768.378906 367.457031 768.886719 368.785156 769.363281 C 370.109375 769.839844 371.445312 770.285156 372.792969 770.695312 C 374.140625 771.109375 375.496094 771.484375 376.863281 771.832031 C 378.230469 772.175781 379.601562 772.488281 380.984375 772.765625 C 382.367188 773.042969 383.753906 773.285156 385.144531 773.496094 C 386.539062 773.703125 387.9375 773.878906 389.339844 774.019531 C 390.742188 774.160156 392.144531 774.265625 393.550781 774.339844 C 394.960938 774.410156 396.367188 774.449219 397.777344 774.449219 C 399.183594 774.453125 400.59375 774.421875 402 774.355469 C 403.410156 774.289062 404.8125 774.1875 406.214844 774.054688 C 407.617188 773.917969 409.015625 773.746094 410.410156 773.542969 C 411.804688 773.339844 413.191406 773.101562 414.574219 772.828125 C 415.957031 772.558594 417.332031 772.25 418.699219 771.910156 C 420.066406 771.570312 421.425781 771.199219 422.773438 770.792969 C 424.125 770.386719 425.460938 769.949219 426.789062 769.476562 C 428.117188 769.003906 429.433594 768.5 430.734375 767.960938 C 432.039062 767.425781 433.328125 766.859375 434.601562 766.257812 C 435.875 765.65625 437.136719 765.027344 438.378906 764.367188 C 439.625 763.703125 440.851562 763.011719 442.0625 762.289062 C 443.269531 761.570312 444.460938 760.816406 445.636719 760.035156 C 446.808594 759.257812 447.960938 758.449219 449.09375 757.609375 C 450.230469 756.773438 451.339844 755.910156 452.433594 755.019531 C 453.523438 754.125 454.589844 753.207031 455.636719 752.265625 C 456.683594 751.320312 457.707031 750.351562 458.703125 749.355469 L 703.710938 505.1875 L 801.265625 406.582031 C 801.660156 406.183594 802.03125 405.765625 802.382812 405.332031 C 802.738281 404.898438 803.066406 404.449219 803.375 403.980469 C 803.683594 403.515625 803.96875 403.035156 804.230469 402.539062 C 804.492188 402.046875 804.726562 401.539062 804.941406 401.023438 C 805.152344 400.503906 805.335938 399.976562 805.496094 399.441406 C 805.65625 398.90625 805.792969 398.363281 805.898438 397.8125 C 806.003906 397.265625 806.085938 396.710938 806.140625 396.15625 C 806.191406 395.597656 806.21875 395.039062 806.214844 394.480469 C 806.214844 393.921875 806.1875 393.363281 806.128906 392.808594 C 806.074219 392.25 805.992188 391.699219 805.878906 391.152344 C 805.769531 390.601562 805.632812 390.0625 805.46875 389.527344 C 805.308594 388.992188 805.117188 388.464844 804.902344 387.949219 C 804.6875 387.433594 804.449219 386.925781 804.1875 386.433594 C 803.921875 385.941406 803.632812 385.460938 803.324219 384.996094 C 803.011719 384.53125 802.679688 384.085938 802.324219 383.652344 C 801.96875 383.21875 801.59375 382.804688 801.199219 382.410156 Z M 458.703125 40.738281 " fill-opacity="1" fill-rule="nonzero"/><path fill="#e6e6e4" d="M 500.195312 406.582031 C 500.585938 406.183594 500.960938 405.765625 501.3125 405.332031 C 501.664062 404.898438 501.996094 404.449219 502.304688 403.980469 C 502.609375 403.515625 502.894531 403.035156 503.15625 402.539062 C 503.417969 402.046875 503.65625 401.539062 503.867188 401.023438 C 504.078125 400.503906 504.265625 399.976562 504.425781 399.441406 C 504.585938 398.90625 504.71875 398.363281 504.824219 397.8125 C 504.933594 397.265625 505.011719 396.710938 505.066406 396.15625 C 505.121094 395.597656 505.144531 395.039062 505.144531 394.480469 C 505.140625 393.921875 505.113281 393.363281 505.058594 392.808594 C 505 392.25 504.917969 391.699219 504.808594 391.152344 C 504.699219 390.601562 504.5625 390.0625 504.398438 389.527344 C 504.234375 388.992188 504.046875 388.464844 503.832031 387.949219 C 503.617188 387.433594 503.375 386.925781 503.113281 386.433594 C 502.847656 385.941406 502.5625 385.460938 502.25 384.996094 C 501.941406 384.53125 501.605469 384.085938 501.25 383.652344 C 500.898438 383.21875 500.523438 382.804688 500.125 382.410156 L 157.640625 40.738281 C 156.640625 39.746094 155.617188 38.777344 154.574219 37.832031 C 153.527344 36.890625 152.457031 35.972656 151.367188 35.082031 C 150.273438 34.191406 149.164062 33.328125 148.027344 32.492188 C 146.894531 31.652344 145.742188 30.847656 144.570312 30.066406 C 143.394531 29.285156 142.203125 28.535156 140.992188 27.816406 C 139.785156 27.09375 138.558594 26.402344 137.3125 25.742188 C 136.070312 25.078125 134.808594 24.449219 133.535156 23.851562 C 132.261719 23.25 130.972656 22.683594 129.667969 22.144531 C 128.367188 21.609375 127.050781 21.105469 125.722656 20.632812 C 124.394531 20.164062 123.058594 19.722656 121.710938 19.316406 C 120.359375 18.910156 119.003906 18.539062 117.636719 18.199219 C 116.269531 17.859375 114.894531 17.554688 113.511719 17.28125 C 112.128906 17.007812 110.742188 16.773438 109.347656 16.566406 C 107.953125 16.363281 106.554688 16.195312 105.152344 16.058594 C 103.75 15.921875 102.347656 15.820312 100.9375 15.753906 C 99.53125 15.6875 98.125 15.65625 96.714844 15.660156 C 95.308594 15.660156 93.898438 15.699219 92.492188 15.769531 C 91.085938 15.839844 89.679688 15.949219 88.277344 16.089844 C 86.878906 16.230469 85.480469 16.402344 84.085938 16.613281 C 82.695312 16.820312 81.308594 17.0625 79.925781 17.339844 C 78.542969 17.617188 77.171875 17.929688 75.804688 18.273438 C 74.4375 18.617188 73.082031 18.996094 71.734375 19.40625 C 70.386719 19.816406 69.050781 20.261719 67.726562 20.738281 C 66.398438 21.214844 65.085938 21.722656 63.785156 22.261719 C 62.484375 22.804688 61.199219 23.375 59.925781 23.980469 C 58.652344 24.582031 57.394531 25.21875 56.152344 25.882812 C 54.914062 26.550781 53.6875 27.246094 52.480469 27.972656 C 51.273438 28.695312 50.085938 29.453125 48.914062 30.234375 C 47.742188 31.019531 46.59375 31.832031 45.460938 32.671875 C 44.332031 33.511719 43.222656 34.378906 42.132812 35.273438 C 41.046875 36.167969 39.980469 37.089844 38.9375 38.039062 C 37.894531 38.984375 36.875 39.957031 35.878906 40.953125 C 34.886719 41.949219 33.914062 42.972656 32.96875 44.015625 C 32.023438 45.0625 31.105469 46.128906 30.210938 47.21875 C 29.320312 48.308594 28.453125 49.417969 27.613281 50.550781 C 26.777344 51.683594 25.964844 52.835938 25.183594 54.007812 C 24.402344 55.179688 23.648438 56.367188 22.925781 57.578125 C 22.203125 58.785156 21.507812 60.011719 20.847656 61.253906 C 20.183594 62.5 19.550781 63.757812 18.949219 65.03125 C 18.347656 66.304688 17.777344 67.59375 17.238281 68.894531 C 16.699219 70.195312 16.191406 71.511719 15.71875 72.835938 C 15.242188 74.164062 14.800781 75.5 14.394531 76.847656 C 13.984375 78.199219 13.609375 79.554688 13.269531 80.921875 C 12.925781 82.289062 12.617188 83.664062 12.34375 85.042969 C 12.070312 86.425781 11.828125 87.8125 11.621094 89.207031 C 11.414062 90.601562 11.242188 92 11.105469 93.402344 C 10.964844 94.804688 10.863281 96.207031 10.792969 97.613281 C 10.722656 99.023438 10.6875 100.429688 10.6875 101.839844 C 10.6875 103.25 10.722656 104.65625 10.792969 106.0625 C 10.859375 107.46875 10.964844 108.875 11.101562 110.277344 C 11.238281 111.679688 11.410156 113.078125 11.617188 114.472656 C 11.824219 115.863281 12.066406 117.253906 12.339844 118.632812 C 12.613281 120.015625 12.921875 121.390625 13.261719 122.757812 C 13.605469 124.125 13.980469 125.480469 14.386719 126.832031 C 14.796875 128.179688 15.238281 129.515625 15.710938 130.84375 C 16.183594 132.167969 16.691406 133.484375 17.230469 134.785156 C 17.769531 136.089844 18.335938 137.375 18.9375 138.648438 C 19.539062 139.925781 20.171875 141.183594 20.835938 142.425781 C 21.5 143.667969 22.191406 144.894531 22.914062 146.101562 C 23.640625 147.3125 24.390625 148.503906 25.171875 149.675781 C 25.953125 150.847656 26.765625 152 27.601562 153.132812 C 28.441406 154.265625 29.304688 155.375 30.199219 156.464844 C 31.089844 157.554688 32.011719 158.621094 32.957031 159.667969 C 33.898438 160.710938 34.871094 161.734375 35.867188 162.730469 L 267.019531 393.910156 C 267.234375 394.125 267.402344 394.375 267.515625 394.660156 C 267.632812 394.941406 267.691406 395.238281 267.691406 395.542969 C 267.6875 395.847656 267.628906 396.144531 267.511719 396.425781 C 267.394531 396.707031 267.230469 396.957031 267.011719 397.171875 L 36.058594 627.347656 C 35.058594 628.34375 34.085938 629.363281 33.136719 630.40625 C 32.191406 631.449219 31.269531 632.511719 30.371094 633.601562 C 29.476562 634.6875 28.605469 635.796875 27.765625 636.929688 C 26.925781 638.058594 26.109375 639.210938 25.324219 640.382812 C 24.542969 641.550781 23.785156 642.742188 23.058594 643.949219 C 22.332031 645.15625 21.636719 646.382812 20.96875 647.625 C 20.300781 648.867188 19.667969 650.125 19.0625 651.398438 C 18.457031 652.671875 17.882812 653.957031 17.34375 655.257812 C 16.800781 656.558594 16.292969 657.875 15.816406 659.199219 C 15.339844 660.527344 14.894531 661.863281 14.484375 663.210938 C 14.070312 664.558594 13.691406 665.917969 13.347656 667.285156 C 13.003906 668.652344 12.691406 670.023438 12.414062 671.40625 C 12.136719 672.789062 11.894531 674.175781 11.6875 675.570312 C 11.476562 676.964844 11.300781 678.363281 11.160156 679.765625 C 11.019531 681.167969 10.914062 682.574219 10.84375 683.980469 C 10.773438 685.390625 10.734375 686.796875 10.730469 688.207031 C 10.730469 689.617188 10.761719 691.027344 10.828125 692.433594 C 10.894531 693.839844 10.996094 695.246094 11.132812 696.648438 C 11.269531 698.054688 11.4375 699.453125 11.644531 700.847656 C 11.847656 702.242188 12.085938 703.628906 12.359375 705.011719 C 12.632812 706.394531 12.9375 707.769531 13.277344 709.140625 C 13.617188 710.507812 13.992188 711.867188 14.398438 713.214844 C 14.804688 714.566406 15.246094 715.902344 15.71875 717.230469 C 16.191406 718.558594 16.695312 719.875 17.230469 721.179688 C 17.769531 722.480469 18.339844 723.769531 18.9375 725.046875 C 19.539062 726.320312 20.171875 727.582031 20.832031 728.824219 C 21.496094 730.070312 22.1875 731.296875 22.910156 732.507812 C 23.632812 733.71875 24.382812 734.910156 25.164062 736.082031 C 25.945312 737.253906 26.753906 738.410156 27.59375 739.542969 C 28.429688 740.675781 29.296875 741.789062 30.1875 742.878906 C 31.082031 743.972656 32 745.039062 32.941406 746.085938 C 33.886719 747.132812 34.859375 748.152344 35.851562 749.152344 C 36.847656 750.148438 37.867188 751.125 38.910156 752.070312 C 39.953125 753.019531 41.015625 753.941406 42.105469 754.839844 C 43.191406 755.734375 44.300781 756.601562 45.433594 757.445312 C 46.5625 758.285156 47.714844 759.101562 48.882812 759.886719 C 50.054688 760.671875 51.242188 761.425781 52.453125 762.152344 C 53.660156 762.878906 54.882812 763.574219 56.125 764.242188 C 57.367188 764.910156 58.625 765.542969 59.898438 766.148438 C 61.171875 766.753906 62.457031 767.328125 63.757812 767.867188 C 65.0625 768.410156 66.375 768.921875 67.699219 769.398438 C 69.027344 769.875 70.363281 770.320312 71.710938 770.730469 C 73.058594 771.140625 74.417969 771.519531 75.785156 771.863281 C 77.148438 772.210938 78.523438 772.519531 79.90625 772.796875 C 81.289062 773.074219 82.675781 773.316406 84.070312 773.527344 C 85.464844 773.738281 86.859375 773.910156 88.261719 774.050781 C 89.664062 774.191406 91.070312 774.296875 92.476562 774.371094 C 93.886719 774.441406 95.292969 774.476562 96.703125 774.480469 C 98.113281 774.484375 99.523438 774.449219 100.929688 774.382812 C 102.335938 774.316406 103.742188 774.214844 105.144531 774.082031 C 106.546875 773.945312 107.945312 773.773438 109.339844 773.570312 C 110.734375 773.367188 112.125 773.125 113.507812 772.855469 C 114.890625 772.582031 116.265625 772.273438 117.632812 771.933594 C 119 771.59375 120.359375 771.222656 121.707031 770.8125 C 123.058594 770.40625 124.394531 769.96875 125.722656 769.496094 C 127.050781 769.023438 128.367188 768.515625 129.671875 767.980469 C 130.972656 767.441406 132.261719 766.875 133.539062 766.273438 C 134.8125 765.671875 136.070312 765.042969 137.316406 764.378906 C 138.558594 763.71875 139.789062 763.023438 140.996094 762.300781 C 142.207031 761.578125 143.398438 760.828125 144.570312 760.046875 C 145.746094 759.265625 146.898438 758.457031 148.03125 757.617188 C 149.164062 756.78125 150.277344 755.914062 151.367188 755.023438 C 152.460938 754.128906 153.527344 753.210938 154.574219 752.265625 C 155.621094 751.320312 156.640625 750.351562 157.640625 749.355469 L 402.644531 505.1875 Z M 500.195312 406.582031 " fill-opacity="1" fill-rule="nonzero"/></g></g></g></svg>